<?xml version="1.0" encoding="UTF-8"?>
<svg id="Layer_1" xmlns="http://www.w3.org/2000/svg" version="1.1" viewBox="0 0 2048 2048">
  <!-- Generator: Adobe Illustrator 30.1.0, SVG Export Plug-In . SVG Version: 2.1.1 Build 136)  -->
  <defs>
    <style>
      .st0 {
        fill: #f7c32d;
      }

      .st1 {
        fill: #a76207;
      }
    </style>
  </defs>
  <path class="st1" d="M801,1001.8l-56.4,18c-13.7,4.4-28.1,8.6-42.6,6.7-17.8-2.4-30.9-17.2-35.9-34.3-7.1-24.2,12.2-72.5,22.1-96l3.3-7.7c10.4-24.5,22.1-47.6,35.5-70.7,1.1-4.1.4-10.3.1-14.3-1.8-25.9,11.9-46.5,34.1-58.5,9.4-5.1,20.1-8,31.7-7.3,13.2.9,25.5-1.2,38.6-2.7l36.2-4c5.8-.6,11.1-2,17.1-1.7s3.6-.6,4.3-1.4c1.2-1.2,1.3-17.9-3.2-18.8-10.3.5-20.9,1.7-31,4-4.4,1-7.8,3-12.5,3.4-11.8.9-23.6,2.2-34.8,5.8-6.6,2.1-13,.4-20.1,2.2-19.7,4.9-41.7-4-48.9-24-5.6-15.6-6.2-32.1-8.9-48.3l-8.5-51.1-21.6-133.8c-1.4-8.5,3.6-18.7,8.4-24.9,9.1-11.6,22.6-13.8,36.3-16.4l62.1-11.8,38.8-7.1c16.2-3,32.2-4.9,48.1-9,2.7-.7,2.9-5.8,2.5-8.1l-10-54.2c-9.7-.1-16.7-4.4-24-9.6-10.8-7.8-15.9-19.7-16.1-33.1-.2-16.3,8.1-29.1,21.9-36.7,10.9-6,22.1-8.1,34.5-4.9,15.3,3.9,26.1,15.8,29.6,31.3,4.5,20.4-3.8,40.2-22.9,50.3l9.1,55.6c.6,3.4,3.9,5.2,7.1,4.7l35.1-5.9,49.7-9.3c21-3.9,41.6-8.5,62.9-9.7s37.4,16,40.9,37.1l12.1,73.6,10.6,61.7,13.2,74.7c2.6,14.7,1.4,28.5-9,40.2-12.5,14.1-52.1,14.9-67.1,18.8l-11.8,3c-.5.1-34.1,3.3-38.2,7.6-1.5,8.5,0,17.1,2.7,25.8,12.5-.2,24.1-1.3,36.6-3.2s17.5.7,24-3.6c34.5-22.3,45.9-12.5,59.3-16s6.9-7.8,9.9-11.6c17.5-21.4,33.1-43,46.6-67.2,16.4-29.4,34.9-72.1,42.2-104.6l11.6-51.7c2.2-9.6,0-36-14.7-38.6-9.8-1.7-14.1-10.4-12.3-19.8l7.4-38.6c6.1-31.4,6.2-27.7-10.3-43.4-9-8.5-16.7-17.1-26.1-25-7.6-6.4-13.9-13.9-11.5-23.6,3.1-12.4,24.3-13,34.3-14.8,10.4-1.9,44.7-3,47.6-9l16.3-33.9c4.3-9.1,7.8-17.9,13.8-25.9,5.2-6.9,14.9-10.7,22.5-5.6s7,9.6,9.4,14.8l21.1,45.1c2.2,4.8,5.4,8.6,11.5,9.3l23.9,2.7,31.9,4.4c7.4,1,14,2.6,17.4,9.3,7.2,14.3-7.4,23.4-16.7,32.6l-30.5,30.2c-3.1,3-4.2,6.8-3.5,11.3l10.2,64c1.3,8.4-4.7,15.7-12.4,17.1s-5.3,2.1-6.4,4.6c-6.8,15.4-17.1,28.1-30.1,38.9l-7.2,36.8c-7.7,39.3-19.4,76.5-33.6,113.8-6.2,16.2-13.8,29.5-22.3,44.4-21.8,37.9-46.5,73.3-77.1,104.7-4.1,4.2-9.2,7.7-11.4,13.3-6.1,15.4-14.9,29.2-29.3,38.1-11.3,7.1-20.5,6.3-24,12.3l-1.9,130.1-.2,63.2c0,14.9-6.3,29.9-19.4,37.5-9.3,5.4-24.5,4.6-23.7,10l14.6,94.8,12.4,74.7,8,52.4,8.1,51.6,12,74.2c2.1,12.8,12.3,9.1,24.3,17,20.6,13.5,33.8,33.3,37.9,57.5,5.6.2,10.2,2.2,15.5,1.8,14.3-1,29.1,3.6,37.8,15.6,10.3,14.1,8.4,34.3-3.6,46.5-14.5,14.7-23.1,9.7-20.4,19.8l15.8,58.2,14.8,57.8,14.9,56.9,15.4,56.2c2.2,8,20.8-5.5,37.7,16.7,11.7,15.3,11.2,36.3-3.4,49.9-5.6,5.3-13.3,11.5-22.3,11.5l-673.4.2c-12.7,0-22.2-4.8-29.5-14.6-2.5-3.3-6.2-5.6-7.4-10.2-3.3-12.4-1.2-25.3,6.5-35.5,7.8-10.4,19.6-15.9,32.6-14.7s6.6-3.9,7.4-7.6l2.8-12.9,20.8-79.7,8.2-30.9,22.7-86.1c4-15,8.7-21.2-.3-24.7-9.4-3.7-18.7-10.8-22.9-20.6s-3.6-26.6,3.1-35.7,20.2-15.6,33.3-16.2,12.1-1.7,18.4-.4c8.4,1.6,4.4-20.2,26.8-45,15.5-17.3,38.4-21.4,39.4-27.2l11.5-69.9,14.7-94.6,13.4-81.2,12.1-76.2c.5-3.3-2.3-6.2-5.1-6.1-20,.9-36.8-11.7-40.1-31.4l-7.9-46.8c-.3-1.7-2.3-6.5-4.4-5.8ZM1320.4,359.7c7.5,2.8,13.1,6,19.3,9.4l34.7,19.1-10.4-65c1.5-4.9,5.1-8.1,8.6-11.5,13.1-12.9,26.6-24.8,39-39.3l-59.9-8.7c-4.9-.5-8.8-2.7-10.9-7.1l-26.6-55-27.2,55.1c-1.9,3.8-4.7,6.2-9,6.8l-61.4,8.5c15.8,18.7,30,29.4,46.2,47.6,4.1,4.6-2.5,25.4-1.8,33,7.6-10.5,17.9-18,31-17.1,13.7,1,24.5,10.8,28.5,24.3ZM900.4,311.7c8.9-5.6,12.3-16.3,9-25.6-3-8.3-12.4-14.9-22.1-13.6-14,1.8-21.9,15.8-17.3,28.4s18.7,18.3,30.4,10.8ZM1322.6,385.9l2.2,17.4c.5,3.6-.7,6.9-2.7,8.8-3.1,2.9-13.5,5.8-18.8-4l-7.9-14.8c0-8.8,8.1-31.7-3.3-35.3-6.8-2.2-15.3,12.1-16.8,17.8-4.3,16-3.8,32.7.5,48.5,18.9,6.3,37.1,10.6,55.9,14.9s9.1,0,11.2-4.5c7.5-8.4,14.1-17.4,17.3-28.2l-37.5-20.6ZM854.5,689.8l259.3-45c10.2-1.8,15.3-11.2,13.6-21.2l-37.2-218.2c-1.7-9.9-11.4-16.5-21.4-14.7l-157.8,27.8-103.2,17.9c-9.2,1.6-12.3,10.6-10.8,19.2l37.7,222.7c1.6,9.6,10.7,13,19.8,11.4ZM816.6,695.9c-3.6-6.3-4.9-11-6-17.5l-35.1-212.8c-1.3-7.8-1.7-14.2-2.3-22.3l-38,7c-8.6,1.6-14.5,10.6-13,19.8l10.9,65.5,26,155.7c3.6,21.8,42.4,6.7,57.5,4.6ZM1285,606.1c19.7-47.2,31.9-94.2,40.6-144l-46.2-12.8-9.4,46.2c-6.5,30.5-16.2,59-28.3,88.4l43.4,22.2ZM1197.6,737.7c31.8-34.6,56.1-71.1,77.3-111.2l-43.3-22.6c-17.6,33.5-37.8,64.1-63,93.3,15.8,8.8,23.4,23.3,29.1,40.5ZM1002.7,714.4l-3.1-25.7c-9.2.6-17.5,2.5-26.5,4.1l-63.2,11.3c1.1,8.1,1.5,14.2,3.7,20.6l89.2-10.3ZM1144,795.3c19.9-5.5,32.4-22.5,31.8-42.8s-5.1-23.4-14.6-31.7c-8.8-7.7-19.7-12.5-32.1-9.3,10,6.8,14.6,17,15.3,28.8,1.1,18.2-.2,35.8-.4,55ZM962.9,958.8c-13.9,4.8-28.5,5.4-41.9-1.4l-32.9,14.1,12.8,73.7c1.5,5.9,6.1,11.4,13.1,10.7l127.1-13.2,63.6-7.4c8.8-1,14.5-9.9,14.5-18.6l.5-112.8,2.2-160.9c0-6.8-4.6-13.9-10.3-15.9s-8-.8-12.5-.3l-238.1,27.7c-8.7,1-10.4,14.2-7.3,20,4.9,9.3,4.6,17.9,6.1,27.6l11.6,75.4c6.5-2.4,12.1-4.5,18.1-7.5,6.2-17,14.7-33.3,29.2-44.3,12.8-9.7,30.8-7.9,43.1,1.2,2.7,2,5.5,2.9,8.5,2,14.5-4.3,27.6,2.4,34.4,15.9,10.2,19.9,17.9,41.2,22.2,63.3,6.8,34.7-40.5,42.7-64.2,50.9ZM828.7,777.5c-10.1-13.6-26.1-19.9-42.2-18-19.9,2.4-33.8,18-37,36-3.5,19.6,7.7,38.1,24,46.1,18.2,8.9,38.4,4.3,51.7-10.4,13.3-14.7,15.8-37.2,3.5-53.6ZM982.1,852.6c-5.3-6.1-24.7,14.9-45.4,21-3.6,1.1-5.9-3.8-6.9-5.9-4.3-9.2,12.1-18.6,19.3-23.5-3.8-2.6-11.5-6-15.9-1.5-9.2,9.4-20.2,22.9-20.7,36.9s7.4,22.4,10.5,33.2c2.5,8.7,5,17.8,10.7,24.8,7.2,8.8,53.3-10.2,63.3-14.6,5.7-2.5,8.2-6.8,7-13.1-2.2-11.5-14.4-48.7-21.9-57.3ZM753.8,919.3l24.8-51.6c-16.1-4.3-28.9-12.4-39.1-25.5l-23,46.5c-7.4,16.4-14.6,32.1-19.2,49.8l56.5-19.2ZM812.8,899.9l37.2-13.9-7-40c-10.4,10.8-22.3,17.1-36.1,21.6,2.1,11.2,2.2,21.8,5.9,32.3ZM751.3,994c53.1-16.9,104.4-34.6,155.9-55.5l-15.5-43.9c-63.1,25.2-126.4,46.6-190.9,66.5-6.8,2.1-10.3,7.9-11.8,13.8-2.3,9.4.8,18,7.1,23.9s15.2,7.9,24.1,5.1l31.1-9.9ZM880.3,1060.3c-.4-7.8-2.4-12.8-3.5-19l-10.8-61.6-34.5,11.7c-1.9.6-5.7,1.6-5.2,4.6l8.9,53.8c1.6,9.6,10.2,14,19.1,13.1l25.9-2.6ZM967.2,1122.5l42.6-3.8c18.5-16.8,35.1-34.6,50.5-55l-148.3,16.1c11.7,9.9,24.3,17.4,32.8,29.4l9.6,13.5c4.1,1.3,8.5.3,12.8-.2ZM1045.9,1265.1l60.4-9.2-28.7-175.9c-15.1,17.7-28.9,34-45.2,49-1.7,1.6-5.2,2.7-5.6,5.3l19.2,130.8ZM934.5,1132.6c-12.1-13.8-36.2-39-53.2-42.3l-26.2,165.3,60.4,9.6,19-132.6ZM959.5,1486l91-.5c2.7-2.9,2.4-8,1.8-12.1l-16-113.8-9.8-67.8-10.5-77.6-9.8-65.5c-1.5-10.1-17.2-4.5-31.7-3.7s-13.5-.8-19.6,2.7l-12.6,91.7-13.1,97.1-7,48.7-7.7,56.4-5.1,43.6,36.6,1.2c4.5.2,8.1-.4,13.5-.4ZM891,1441.5l21.3-152.8-61.2-10.5-21.5,135.8c4.6,1.5,8,1.5,12.1,1.7,18.9,1.1,35.6,11.9,49.3,25.8ZM1131.9,1414.5l-22-136.3-60.9,9.9,21.6,153.1c18.7-17.8,36.1-26.8,61.3-26.7ZM887.5,1485.4c-6.7-33.9-38.1-53.9-70.8-47-24.3,5.1-43.4,23-47.8,47.4l118.6-.4ZM1075.1,1485.8h117.8c-3.7-19.9-17.2-35.6-35.4-43.5-21-9-43.3-6-61.6,7.3-11.8,8.6-20.8,20.9-20.8,36.1ZM1241.4,1539.1c8.8-3.4,14-10.8,11.6-19.2-1.8-6.3-8.4-11.1-15.8-11.1l-518.2.2c-8.4,0-13.3,8.4-13.3,14.9s5.2,15,13.4,15h187.6c0,0,334.7.2,334.7.2ZM772.8,1799.9h510.2c0-.1-62.5-237.7-62.5-237.7h-482.4s-17.2,66.7-17.2,66.7l-44.6,170.8,96.5.2ZM1312.7,1823.2h-111.3s-42.7,0-42.7,0h-515.7c-8.1,0-13,8-13.2,14.8s5.1,14.9,13.1,14.9h514.5s158.7,0,158.7,0c8.7,0,14-9.5,13.4-16.1-.6-7.8-7.7-13.6-16.7-13.6Z"/>
  <polygon class="st0" points="772.8 1799.9 676.3 1799.7 720.9 1629 738.1 1562.2 1220.5 1562.3 1283 1799.8 772.8 1799.9"/>
  <path class="st0" d="M854.5,689.8c-9.1,1.6-18.2-1.8-19.8-11.4l-37.7-222.7c-1.5-8.6,1.6-17.6,10.8-19.2l103.2-17.9,157.8-27.8c10.1-1.8,19.8,4.8,21.4,14.7l37.2,218.2c1.7,10-3.5,19.4-13.6,21.2l-259.3,45ZM1060,540.2c9.9-16,1.6-36.3-15.2-43.5-10.3-4.4-21.6-1.7-29.6,4.9s-12.1,17.7-10,28.8c2.3,12.4,11.8,21.5,22.9,23.8,12.6,2.6,24.7-2.3,31.9-14ZM906.4,576.8c16-3.5,25.1-18.3,23.1-33.3-1.9-14.2-13.5-26.2-28.9-26.3-18.5-.1-31.8,15.3-30.1,33.2s17.7,30.4,35.9,26.4Z"/>
  <path class="st0" d="M962.9,958.8c23.7-8.2,71-16.1,64.2-50.9-4.3-22.1-12-43.4-22.2-63.3s-19.9-20.2-34.4-15.9-5.8,0-8.5-2c-12.3-9.2-30.4-11-43.1-1.2-14.6,11.1-23,27.3-29.2,44.3-6,3-11.7,5.2-18.1,7.5l-11.6-75.4c-1.5-9.7-1.2-18.3-6.1-27.6s-1.5-19,7.3-20l238.1-27.7c4.5-.5,8.6-1.1,12.5.3,5.7,2,10.4,9.1,10.3,15.9l-2.2,160.9-.5,112.8c0,8.7-5.7,17.5-14.5,18.6l-63.6,7.4-127.1,13.2c-6.9.7-11.6-4.8-13.1-10.7l-12.8-73.7,32.9-14.1c13.4,6.9,28,6.2,41.9,1.4Z"/>
  <path class="st0" d="M1312.7,1823.2c9.1,0,16.1,5.8,16.7,13.6.5,6.6-4.8,16.1-13.4,16.1h-158.7s-514.5,0-514.5,0c-8,0-13.2-9.7-13.1-14.9s5.1-14.7,13.2-14.7h515.7s42.7-.1,42.7-.1h111.3Z"/>
  <path class="st0" d="M1241.4,1539.1h-334.7c0-.1-187.6-.2-187.6-.2-8.1,0-13.3-8.7-13.4-15s4.8-14.9,13.3-14.9l518.2-.2c7.3,0,14,4.9,15.8,11.1,2.4,8.4-2.8,15.8-11.6,19.2Z"/>
  <path class="st0" d="M1320.4,359.7c-3.9-13.5-14.8-23.3-28.5-24.3-13.1-.9-23.4,6.6-31,17.1-.7-7.6,5.9-28.4,1.8-33-16.2-18.2-30.3-28.9-46.2-47.6l61.4-8.5c4.3-.7,7.2-3,9-6.8l27.2-55.1,26.6,55c2,4.5,5.9,6.6,10.9,7.1l59.9,8.7c-12.4,14.5-25.9,26.3-39,39.3s-7.1,6.6-8.6,11.5l10.4,65-34.7-19.1c-6.2-3.4-11.8-6.6-19.3-9.4Z"/>
  <path class="st0" d="M816.6,695.9c-15,2.1-53.9,17.2-57.5-4.6l-26-155.7-10.9-65.5c-1.5-9.1,4.4-18.2,13-19.8l38-7c.5,8.1,1,14.5,2.3,22.3l35.1,212.8c1.1,6.5,2.4,11.2,6,17.5Z"/>
  <path class="st0" d="M751.3,994l-31.1,9.9c-8.9,2.8-17.4,1.1-24.1-5.1s-9.5-14.4-7.1-23.9,5-11.8,11.8-13.8c64.6-19.9,127.8-41.3,190.9-66.5l15.5,43.9c-51.5,21-102.8,38.7-155.9,55.5Z"/>
  <path class="st0" d="M934.5,1132.6l-19,132.6-60.4-9.6,26.2-165.3c17,3.3,41.1,28.4,53.2,42.3Z"/>
  <path class="st0" d="M1045.9,1265.1l-19.2-130.8c.4-2.6,3.8-3.8,5.6-5.3,16.4-15,30.1-31.3,45.2-49l28.7,175.9-60.4,9.2Z"/>
  <path class="st0" d="M891,1441.5c-13.7-13.9-30.4-24.7-49.3-25.8-4.1-.2-7.5-.3-12.1-1.7l21.5-135.8,61.2,10.5-21.3,152.8Z"/>
  <path class="st0" d="M1131.9,1414.5c-25.3-.1-42.6,8.9-61.3,26.7l-21.6-153.1,60.9-9.9,22,136.3Z"/>
  <path class="st0" d="M1285,606.1l-43.4-22.2c12.1-29.4,21.8-57.9,28.3-88.4l9.4-46.2,46.2,12.8c-8.7,49.7-20.8,96.7-40.6,144Z"/>
  <path class="st0" d="M828.7,777.5c12.3,16.5,9.8,38.9-3.5,53.6-13.3,14.7-33.5,19.3-51.7,10.4-16.3-7.9-27.5-26.5-24-46.1,3.2-18,17.1-33.6,37-36,16-1.9,32,4.4,42.2,18Z"/>
  <path class="st0" d="M1197.6,737.7c-5.7-17.2-13.3-31.7-29.1-40.5,25.2-29.2,45.4-59.8,63-93.3l43.3,22.6c-21.2,40.1-45.5,76.7-77.3,111.2Z"/>
  <path class="st0" d="M982.1,852.6c7.5,8.5,19.7,45.8,21.9,57.3,1.2,6.3-1.3,10.6-7,13.1-10,4.3-56.1,23.3-63.3,14.6-5.7-7-8.2-16.1-10.7-24.8-3.1-10.8-10.9-21.8-10.5-33.2s11.5-27.5,20.7-36.9c4.4-4.5,12.1-1.1,15.9,1.5-7.2,4.9-23.6,14.3-19.3,23.5s3.3,7,6.9,5.9c20.7-6.1,40.1-27,45.4-21Z"/>
  <path class="st0" d="M967.2,1122.5c-4.3.5-8.7,1.5-12.8.2l-9.6-13.5c-8.5-12-21.1-19.5-32.8-29.4l148.3-16.1c-15.4,20.3-32,38.2-50.5,55l-42.6,3.8Z"/>
  <path class="st0" d="M1075.1,1485.8c0-15.3,9-27.5,20.8-36.1,18.2-13.4,40.5-16.4,61.6-7.3,18.3,7.8,31.7,23.5,35.4,43.5h-117.8Z"/>
  <path class="st0" d="M887.5,1485.4l-118.6.4c4.4-24.5,23.5-42.4,47.8-47.4,32.7-6.8,64.1,13.1,70.8,47Z"/>
  <path class="st0" d="M753.8,919.3l-56.5,19.2c4.6-17.7,11.7-33.5,19.2-49.8l23-46.5c10.2,13.1,23,21.2,39.1,25.5l-24.8,51.6Z"/>
  <path class="st0" d="M1322.6,385.9l37.5,20.6c-3.2,10.8-9.8,19.8-17.3,28.2-2.1,4.5-6.3,5.6-11.2,4.5-18.9-4.4-37-8.7-55.9-14.9-4.3-15.8-4.7-32.5-.5-48.5,1.5-5.7,10-19.9,16.8-17.8,11.5,3.6,3.4,26.5,3.3,35.3l7.9,14.8c5.2,9.8,15.7,6.9,18.8,4s3.2-5.2,2.7-8.8l-2.2-17.4Z"/>
  <path class="st0" d="M880.3,1060.3l-25.9,2.6c-9,.9-17.6-3.5-19.1-13.1l-8.9-53.8c-.5-2.9,3.4-3.9,5.2-4.6l34.5-11.7,10.8,61.6c1.1,6.2,3.1,11.2,3.5,19Z"/>
  <path class="st0" d="M1002.7,714.4l-89.2,10.3c-2.2-6.5-2.6-12.6-3.7-20.6l63.2-11.3c9.1-1.6,17.3-3.5,26.5-4.1l3.1,25.7Z"/>
  <path class="st0" d="M1144,795.3c.2-19.2,1.5-36.8.4-55-.7-11.8-5.4-22-15.3-28.8,12.4-3.3,23.3,1.6,32.1,9.3,9.5,8.3,14.3,18.9,14.6,31.7.6,20.3-11.9,37.3-31.8,42.8Z"/>
  <path class="st0" d="M900.4,311.7c-11.7,7.5-26.1.9-30.4-10.8s3.2-26.6,17.3-28.4c9.8-1.3,19.1,5.3,22.1,13.6,3.3,9.3-.1,19.9-9,25.6Z"/>
  <path class="st0" d="M812.8,899.9c-3.7-10.5-3.8-21.1-5.9-32.3,13.8-4.5,25.8-10.8,36.1-21.6l7,40-37.2,13.9Z"/>
  <path class="st1" d="M906.4,576.8c-18.2,3.9-34.2-9.7-35.9-26.4s11.5-33.3,30.1-33.2c15.4.1,27,12.1,28.9,26.3,2,15-7.1,29.9-23.1,33.3Z"/>
  <path class="st1" d="M1060,540.2c-7.2,11.7-19.4,16.6-31.9,14-11.1-2.3-20.6-11.4-22.9-23.8-2-11.1,1.6-21.9,10-28.8s19.4-9.3,29.6-4.9c16.8,7.2,25.1,27.5,15.2,43.5Z"/>
</svg>